<?xml version="1.0" encoding="iso-8859-1"?>
<!-- Generator: Adobe Illustrator 19.0.0, SVG Export Plug-In . SVG Version: 6.00 Build 0)  -->
<svg version="1.1" id="Capa_1" xmlns="http://www.w3.org/2000/svg" xmlns:xlink="http://www.w3.org/1999/xlink" x="0px" y="0px"
	 viewBox="0 0 512 512" style="enable-background:new 0 0 512 512;" xml:space="preserve">
<path style="fill:#014059;" d="M166,60V30c-49.75,0-90,40.25-90,90v5h90c33,0,60,27,60,60l45,30V60H166z"/>
<path d="M346,30v30h-90v155l30-30c0-33,27-60,60-60h90v-5C436,70.25,395.75,30,346,30z"/>
<path style="fill:#FF4B37;" d="M84.044,215l15,96.148c12.058,32.402,27.838,61.356,44.844,86.23l13.715-25.123l31.129,79.65
	c16.514,16.616,32.185,28.975,44.844,36.511L256,215H84.044z"/>
<path style="fill:#FF0021;" d="M256,215l22.42,273.419c12.659-7.534,28.329-19.893,44.844-36.509l31.128-79.651l13.716,25.125
	c17.006-24.873,32.785-53.826,44.844-86.226l15-96.159L256,215L256,215z"/>
<path style="fill:#FFD237;" d="M143.888,215v182.379c14.574,21.317,30.041,39.633,44.844,54.528V215H143.888z"/>
<g>
	<path style="fill:#FFB037;" d="M323.264,215v236.91c14.803-14.894,30.269-33.209,44.844-54.526V215H323.264z"/>
	<path style="fill:#FFB037;" d="M256,215l-15,163.5L256,497c5.177,0,12.961-2.951,22.42-8.581V215H256z"/>
</g>
<path style="fill:#FFD237;" d="M233.576,215v273.417C243.037,494.048,250.822,497,256,497V215H233.576z"/>
<path style="fill:#00B8FA;" d="M256,185l-30,30l30,30h174.859c3.301-19.2,5.141-39.226,5.141-60H256z"/>
<path style="fill:#5CD4FF;" d="M76,185c0,20.772,1.836,40.801,5.138,60H256v-60H76z"/>
<path style="fill:#014059;" d="M222.391,461.31c-19.406-15.696-39.737-37.404-57.249-61.125
	C131.656,354.823,91.739,280.669,91.739,185v-65L256,75.62L271,60l-15-15.62h-14.38V0h-31.24v44.38h-28.641v-30h-15.62
	C107.881,14.38,60.5,61.761,60.5,120v65c0,44.798,8.188,89.362,24.337,132.454c13.571,36.214,32.411,70.666,55.996,102.396
	C180.145,472.737,229.587,512,256,512l10.12-15L256,481.378C253.441,481.219,242.083,477.238,222.391,461.31z"/>
<path d="M345.881,14.38h-15.619v30H301.62V0h-31.24v44.38H256v31.24L420.262,120v65c0,95.669-39.917,169.823-73.403,215.184
	c-17.512,23.721-37.843,45.429-57.249,61.125c-19.692,15.928-31.05,19.91-33.609,20.069V512c26.413,0,75.856-39.263,115.168-92.151
	c23.585-31.73,42.425-66.181,55.996-102.396C443.313,274.362,451.5,229.798,451.5,185v-65C451.5,61.761,404.12,14.38,345.881,14.38z
	"/>
<path style="fill:#FF9037;" d="M256,275l-31.25,50L256,375c27.614,0,50-22.386,50-50S283.614,275,256,275z"/>
<path style="fill:#FFB037;" d="M206,325c0,27.614,22.386,50,50,50V275C228.386,275,206,297.386,206,325z"/>
<g>
</g>
<g>
</g>
<g>
</g>
<g>
</g>
<g>
</g>
<g>
</g>
<g>
</g>
<g>
</g>
<g>
</g>
<g>
</g>
<g>
</g>
<g>
</g>
<g>
</g>
<g>
</g>
<g>
</g>
</svg>
