<?xml version="1.0" encoding="iso-8859-1"?>
<!-- Generator: Adobe Illustrator 19.0.0, SVG Export Plug-In . SVG Version: 6.00 Build 0)  -->
<svg version="1.1" id="Capa_1" xmlns="http://www.w3.org/2000/svg" xmlns:xlink="http://www.w3.org/1999/xlink" x="0px" y="0px"
	 viewBox="0 0 512 512" style="enable-background:new 0 0 512 512;" xml:space="preserve">
<path d="M256,0l-60,256l60,256l5.978-2.591C385.917,455.553,466,333.296,466,197.945V0H256z"/>
<path style="fill:#012231;" d="M46,0v197.945c0,135.351,80.083,257.607,204.022,311.463L256,512V0H46z"/>
<path style="fill:#EFF6F9;" d="M436,83.685l-119.901,8.198L407.667,30H256l-50,226l50,223.221
	c73.004-33.569,128.625-93.472,157.623-165.564l-96.807,2.802l115.817-72.875c2.219-14.961,3.367-30.205,3.367-45.638v-3.147
	l-114.288,7.814L436,131.306V83.685z"/>
<path style="fill:#FFFFFF;" d="M76,30v114.808h100L76.177,208.24c0.513,15.552,2.18,30.889,4.941,45.91H176l-78.33,57.764
	c5.571,14.096,12.166,27.728,19.699,40.801H176l-22.039,50.827C181.869,435.017,216.373,461,256,479.221V30H76z"/>
<polygon style="fill:#009AD2;" points="256,145.993 436,83.685 436,30 407.667,30 256,82.5 226,114.247 "/>
<polygon points="256,257.106 436,194.799 436,163.052 226,215.36 "/>
<path style="fill:#009AD2;" d="M256,304.726l-30,31.747l30,31.747l157.623-54.562c8.982-22.329,15.413-45.825,19.009-70.073
	L256,304.726z"/>
<g>
	<path style="fill:#00B8FA;" d="M256,304.726l-138.631,47.988c10.441,18.118,22.696,35.155,36.592,50.827L256,368.219V304.726z"/>
	<path style="fill:#00B8FA;" d="M256,82.5L76,144.808v53.138c0,3.441,0.064,6.872,0.177,10.294L256,145.993V82.5z"/>
</g>
<path style="fill:#012231;" d="M256,225.36h-50L88.02,283.507c2.767,9.646,5.983,19.128,9.65,28.406L256,257.106V225.36z"/>
<polygon style="fill:#D5011D;" points="256,225.36 436,163.052 436,131.306 256,193.613 226,225.36 "/>
<path style="fill:#FF0021;" d="M256,193.613L81.119,254.149c1.827,9.936,4.139,19.729,6.901,29.358L256,225.36V193.613z"/>
<path style="fill:#EFF6F9;" d="M308.501,128.078H301V98.077h-45l-45,112.5l45,142.5h7.5c49.626,0,90-40.374,90-90v-39.721h30
	v-20.279C383.5,161.722,349.855,128.078,308.501,128.078z"/>
<path style="fill:#FFFFFF;" d="M211,98.077v30.001h-7.501c-41.354,0-74.999,33.645-74.999,75v98.164h45v51.836H256v-255L211,98.077
	L211,98.077z"/>
<rect x="241" y="128.08" width="30" height="45"/>
<path d="M353.5,203.077c0-24.813-20.187-45-44.999-45H256l-30,67.5l30,97.5h7.5c33.084,0,60-26.916,60-60v-60H353.5z"/>
<path style="fill:#012231;" d="M203.499,158.077L203.499,158.077c-24.813,0-44.999,20.187-44.999,45h45v38.164h-45v30h45v51.836H256
	V158.078L203.499,158.077z"/>
<g>
</g>
<g>
</g>
<g>
</g>
<g>
</g>
<g>
</g>
<g>
</g>
<g>
</g>
<g>
</g>
<g>
</g>
<g>
</g>
<g>
</g>
<g>
</g>
<g>
</g>
<g>
</g>
<g>
</g>
</svg>
