<?xml version="1.0" encoding="iso-8859-1"?>
<!-- Generator: Adobe Illustrator 19.0.0, SVG Export Plug-In . SVG Version: 6.00 Build 0)  -->
<svg version="1.1" id="Capa_1" xmlns="http://www.w3.org/2000/svg" xmlns:xlink="http://www.w3.org/1999/xlink" x="0px" y="0px"
	 viewBox="0 0 512 512" style="enable-background:new 0 0 512 512;" xml:space="preserve">
<path style="fill:#AAE8FD;" d="M212.671,27.868L206,25.501V112h40V75C246,53.879,232.606,34.938,212.671,27.868z"/>
<path style="fill:#014059;" d="M376,47c-41.355,0-75,33.645-75,75v75c0,16.542-13.458,30-30,30l-20,15l20,15
	c33.084,0,60-26.916,60-60c0-24.813,20.187-45,45-45h15V47H376z"/>
<path style="fill:#015E82;" d="M271,75c0-41.355-33.645-75-75-75h-45v30h30v78.507c-34.191,6.969-60,37.274-60,73.493
	c0,41.355,33.645,75,75,75h45v60h30V75z M241,107h-30V32.58c17.459,6.192,30,22.865,30,42.42V107z"/>
<path style="fill:#014059;" d="M310.188,317.091L256,302l-64.286,105L256,512l54.165-15.077
	c26.373-15.945,45.204-43.161,49.767-74.922v-30.003C355.37,360.247,336.549,333.038,310.188,317.091z"/>
<path style="fill:#015E82;" d="M152.068,391.999V422c7.301,50.818,51.127,90,103.932,90V302
	C203.195,302,159.369,341.182,152.068,391.999z"/>
<path style="fill:#AAE8FD;" d="M361,407c0-5.093-0.372-10.099-1.076-15H256l-15,15l15,15h103.924
	C360.628,417.099,361,412.093,361,407z"/>
<path style="fill:#FFFFFF;" d="M152.076,392c-0.704,4.901-1.076,9.907-1.076,15s0.372,10.099,1.076,15H256v-30H152.076z"/>
<g>
	<path style="fill:#AAE8FD;" d="M310.182,317.09C294.354,307.516,275.81,302,256,302l-15,15l15,21.29
		C270.763,325.8,289.586,317.966,310.182,317.09z"/>
	<path style="fill:#AAE8FD;" d="M256,511.995c19.813,0.004,38.352-5.511,54.176-15.081c-20.593-0.877-39.414-8.71-54.176-21.199
		l-15,21.28L256,511.995z"/>
</g>
<path style="fill:#FFFFFF;" d="M224.05,407.002c0-27.522,12.422-52.192,31.95-68.712V302c-36.913,20.488-61.95,59.876-61.95,105.002
	c0,45.124,25.039,84.504,61.95,104.993v-36.28C236.473,459.194,224.05,434.524,224.05,407.002z"/>
<g>
</g>
<g>
</g>
<g>
</g>
<g>
</g>
<g>
</g>
<g>
</g>
<g>
</g>
<g>
</g>
<g>
</g>
<g>
</g>
<g>
</g>
<g>
</g>
<g>
</g>
<g>
</g>
<g>
</g>
</svg>
