<?xml version="1.0" encoding="iso-8859-1"?>
<!-- Generator: Adobe Illustrator 19.0.0, SVG Export Plug-In . SVG Version: 6.00 Build 0)  -->
<svg version="1.1" id="Capa_1" xmlns="http://www.w3.org/2000/svg" xmlns:xlink="http://www.w3.org/1999/xlink" x="0px" y="0px"
	 viewBox="0 0 512 512" style="enable-background:new 0 0 512 512;" xml:space="preserve">
<path style="fill:#015E82;" d="M256,0l-60,256l60,256c141.385,0,256-114.615,256-256S397.385,0,256,0z"/>
<path style="fill:#007CAA;" d="M0,256c0,141.385,114.615,256,256,256V0C114.615,0,0,114.615,0,256z"/>
<path style="fill:#EFF6F9;" d="M256,75l-60,181l60,181c99.963,0,181-81.036,181-181S355.963,75,256,75z"/>
<path style="fill:#FFFFFF;" d="M75,256c0,99.964,81.036,181,181,181V75C156.036,75,75,156.036,75,256z"/>
<path style="fill:#00B8FA;" d="M256,105l-60,151l60,151c83.395,0,151-67.605,151-151S339.395,105,256,105z"/>
<path style="fill:#5CD4FF;" d="M105,256c0,83.395,67.605,151,151,151V105C172.605,105,105,172.605,105,256z"/>
<polygon style="fill:#EFF6F9;" points="278.5,172.5 278.5,202.5 293.5,202.5 293.5,293.263 256,224.763 236,224.763 256,287.237 
	284.611,339.5 323.5,339.5 323.5,202.5 338.5,202.5 338.5,172.5 "/>
<polygon style="fill:#FFFFFF;" points="227.389,172.5 173.5,172.5 173.5,202.5 188.5,202.5 188.5,309.5 173.5,309.5 173.5,339.5 
	233.5,339.5 233.5,309.5 218.5,309.5 218.5,218.737 256,287.237 256,224.763 "/>
<g>
</g>
<g>
</g>
<g>
</g>
<g>
</g>
<g>
</g>
<g>
</g>
<g>
</g>
<g>
</g>
<g>
</g>
<g>
</g>
<g>
</g>
<g>
</g>
<g>
</g>
<g>
</g>
<g>
</g>
</svg>
