<?xml version="1.0" encoding="iso-8859-1"?>
<!-- Generator: Adobe Illustrator 19.0.0, SVG Export Plug-In . SVG Version: 6.00 Build 0)  -->
<svg version="1.1" id="Capa_1" xmlns="http://www.w3.org/2000/svg" xmlns:xlink="http://www.w3.org/1999/xlink" x="0px" y="0px"
	 viewBox="0 0 512 512" style="enable-background:new 0 0 512 512;" xml:space="preserve">
<path style="fill:#FF9037;" d="M346,0c-16.354,0-31.637,6.46-43.034,18.19L266.76,55.451C263.91,58.385,260.088,60,256,60l-20,15
	l20,15h75v30h-75l-20,15l20,15h15v45h30v-45h76c36.668,0,67.253-26.458,73.72-61.28C485.542,82.253,512,51.668,512,15V0H346z
	 M377,120h-16V90h58.42C413.228,107.459,396.555,120,377,120z M437,60H304.169l20.312-20.904C330.181,33.23,337.823,30,346,30
	h133.43C473.239,47.461,456.556,60,437,60z"/>
<path style="fill:#FFB037;" d="M241,120V90h15V60c-4.088,0-7.91-1.615-10.76-4.549L209.034,18.19C197.637,6.46,182.354,0,166,0H0v15
	c0,36.668,26.458,67.253,61.28,73.72C67.747,123.542,98.332,150,135,150h76v45h30v-45h15v-30H241z M75,60
	c-19.556,0-36.239-12.539-42.43-30H166c8.177,0,15.819,3.23,21.519,9.096L207.831,60H75z M211,120h-76
	c-19.555,0-36.228-12.541-42.42-30H211V120z"/>
<path style="fill:#014059;" d="M256,180l-30,166.003L256,512l5.978-2.591C350.076,471.127,407,384.227,407,288.021V180H256z"/>
<path style="fill:#015E82;" d="M105,180v108.021c0,96.207,56.924,183.106,145.022,221.388L256,512V180H105z"/>
<path style="fill:#EFF6F9;" d="M256,210l-30,134.593l30,134.593c73.726-34.784,121-109.105,121-191.165V210H256z"/>
<path style="fill:#FFFFFF;" d="M135,210v78.021c0,82.06,47.274,156.381,121,191.165V210H135z"/>
<path style="fill:#00B8FA;" d="M286.333,255v168.552C324.728,389.456,347,340.522,347,288.021V255H286.333z"/>
<path style="fill:#5CD4FF;" d="M165,255v33.021c0,52.502,22.272,101.435,60.667,135.532V255H165z"/>
<g>
</g>
<g>
</g>
<g>
</g>
<g>
</g>
<g>
</g>
<g>
</g>
<g>
</g>
<g>
</g>
<g>
</g>
<g>
</g>
<g>
</g>
<g>
</g>
<g>
</g>
<g>
</g>
<g>
</g>
</svg>
