<?xml version="1.0" encoding="iso-8859-1"?>
<!-- Generator: Adobe Illustrator 19.0.0, SVG Export Plug-In . SVG Version: 6.00 Build 0)  -->
<svg version="1.1" id="Capa_1" xmlns="http://www.w3.org/2000/svg" xmlns:xlink="http://www.w3.org/1999/xlink" x="0px" y="0px"
	 viewBox="0 0 512 512" style="enable-background:new 0 0 512 512;" xml:space="preserve">
<path style="fill:#D5011D;" d="M450.002,26.069v51.58c0,17.49-0.71,34.74-2.08,51.71l-252.92,38.92l60-149.99
	C308.352,55.499,392.372,58.089,450.002,26.069z"/>
<path style="fill:#FF0021;" d="M255.002,18.289v149.99l-192.92-38.92c-1.37-16.97-2.08-34.22-2.08-51.71v-51.58
	C117.632,58.089,201.662,55.499,255.002,18.289z"/>
<path style="fill:#EFF6F9;" d="M428.752,243.279l-230.33-30l57.58,280.76c6.51-3.96,12.91-8.2,19.19-12.73l20.606-127.764
	l17.784,95.164c13.61-13.43,26.44-28.31,38.39-44.45l23.79-99.76l14.6,37.57C405.922,311.729,418.872,278.579,428.752,243.279z"/>
<g>
	<path style="fill:#D5011D;" d="M390.362,213.279v128.79c-11.44,22.33-24.3,43.15-38.39,62.19v-190.98H390.362z"/>
	<path style="fill:#D5011D;" d="M313.582,213.279v235.43c-12.2,12.06-25.03,22.96-38.39,32.6v-268.03L313.582,213.279
		L313.582,213.279z"/>
</g>
<g>
	<path style="fill:#FFFFFF;" d="M83.252,243.279c9.88,35.3,22.83,68.45,38.39,98.79l14.6-37.57l23.79,99.76
		c11.95,16.14,24.78,31.02,38.39,44.45l57.58-235.43L83.252,243.279z"/>
	<path style="fill:#FFFFFF;" d="M256.002,213.279v280.76c-6.51-3.96-12.91-8.2-19.19-12.73l-38.39-268.03L256.002,213.279
		L256.002,213.279z"/>
</g>
<g>
	<path style="fill:#FF0021;" d="M236.812,213.279v268.03c-13.36-9.64-26.19-20.54-38.39-32.6v-235.43L236.812,213.279
		L236.812,213.279z"/>
	<path style="fill:#FF0021;" d="M160.032,213.279v190.98c-14.09-19.04-26.95-39.86-38.39-62.19v-128.79H160.032z"/>
</g>
<path style="fill:#EFF6F9;" d="M62.082,129.359c3.22,39.76,10.1,77.96,20.17,113.92h172.75v-105
	C202.292,101.509,119.632,98.549,62.082,129.359z"/>
<path style="fill:#D1DEE4;" d="M255.002,138.279v105h172.75c10.07-35.96,16.95-74.16,20.17-113.92
	C390.372,98.549,307.712,101.509,255.002,138.279z"/>
<rect x="256" y="231.56" style="fill:#FF9037;" width="172.75" height="30"/>
<rect x="83.25" y="231.56" style="fill:#FFB037;" width="172.75" height="30"/>
<path style="fill:#FF9037;" d="M441.84,142.586l14.161-26.447c-30.338-16.245-67.985-24.28-106.005-22.649
	c-34.635,1.493-67.597,10.981-93.998,26.915l-15,17.872l15,18.289l8.582-5.986C312.162,117.391,388.368,113.955,441.84,142.586z"/>
<path style="fill:#FFB037;" d="M162.002,93.49C123.978,91.852,86.336,99.895,56,116.139l14.161,26.447
	c53.471-28.632,129.675-25.196,177.256,7.993l8.582,5.986v-36.161C229.597,104.471,196.636,94.983,162.002,93.49z"/>
<path style="fill:#FF6E37;" d="M255.998,186.565l-36.735,60l36.735,60c33.084,0,60-26.916,60-60S289.082,186.565,255.998,186.565z"
	/>
<g>
	<path style="fill:#FF9037;" d="M195.998,246.565c0,33.084,26.916,60,60,60v-120C222.914,186.565,195.998,213.481,195.998,246.565z"
		/>
	<path style="fill:#FF9037;" d="M443.715,12.957c-23.594,13.109-53.417,20.328-83.978,20.328c-36.123,0-69.916-9.695-95.153-27.299
		L256.002,0l-15,21.168l15,15c29.003,17.544,65.414,27.117,103.735,27.117c26.648,0,52.971-4.803,76.263-13.747v28.107
		c0,171.792-70.366,326.959-179.998,398.66l-15,15l15,20.695l7.789-5.143c59.667-36.265,110.247-95.316,146.27-170.77
		C446.657,259.435,466,170.067,466,77.645V0.574L443.715,12.957z"/>
</g>
<path style="fill:#FFB037;" d="M256,476.307C146.367,404.605,76,249.438,76,77.645V49.538c23.293,8.944,49.618,13.748,76.266,13.747
	c38.324-0.001,74.735-9.573,103.736-27.117V0l-8.582,5.986c-25.236,17.603-59.03,27.298-95.156,27.299
	c-30.56,0.001-60.384-7.218-83.979-20.328L46,0.574v77.071c0,92.422,19.343,181.79,55.939,258.442
	c36.023,75.454,86.603,134.505,146.27,170.77L256,512C256.002,511.999,256.002,476.305,256,476.307z"/>
<g>
</g>
<g>
</g>
<g>
</g>
<g>
</g>
<g>
</g>
<g>
</g>
<g>
</g>
<g>
</g>
<g>
</g>
<g>
</g>
<g>
</g>
<g>
</g>
<g>
</g>
<g>
</g>
<g>
</g>
</svg>
