<?xml version="1.0" encoding="iso-8859-1"?>
<!-- Generator: Adobe Illustrator 19.0.0, SVG Export Plug-In . SVG Version: 6.00 Build 0)  -->
<svg version="1.1" id="Capa_1" xmlns="http://www.w3.org/2000/svg" xmlns:xlink="http://www.w3.org/1999/xlink" x="0px" y="0px"
	 viewBox="0 0 512.008 512.008" style="enable-background:new 0 0 512.008 512.008;" xml:space="preserve">
<path d="M422.007,60H256l-75.001,197.003L256,452.007c60.345,0,119.294-24.881,161.732-68.266l4.277-4.372L422.007,60z"/>
<path style="fill:#4F565B;" d="M90.001,60v319.38l4.278,4.373C136.716,427.13,195.661,452.008,256,452.008V60.001L90.001,60
	L90.001,60z"/>
<path style="fill:#EFF6F9;" d="M392.006,90.001H256l-75.001,166.003L256,422.006c50.329,0,99.552-19.975,136.008-55.005
	L392.006,90.001z"/>
<path style="fill:#FFFFFF;" d="M120.002,90.001v277.01c36.454,35.022,85.674,54.995,135.998,54.995V90.001H120.002z"/>
<path style="fill:#B7C3C8;" d="M256,120.001l-64.899,106.002L256,332.005c58.45,0,106.002-47.552,106.002-106.002
	S314.45,120.001,256,120.001z"/>
<path style="fill:#D1DEE4;" d="M149.998,226.003c0,58.45,47.552,106.002,106.002,106.002V120.001
	C197.55,120.001,149.998,167.554,149.998,226.003z"/>
<path style="fill:#FF0021;" d="M241,210.003v-30H105.002c-25.368,0-47.826,12.664-61.398,32.001L0,242.003v30h241v-30h-30v-32.001
	H241z"/>
<path style="fill:#D5011D;" d="M468.398,212.005c-13.573-19.337-36.031-32.003-61.4-32.003H271v30h30v32.001h-30v30h241v-30
	L468.398,212.005z"/>
<path d="M337.983,334.343c-23.684,17.838-52.8,27.662-81.982,27.662l-15,15l15,15c35.654,0,71.179-11.967,100.032-33.699
	L337.983,334.343z"/>
<path style="fill:#4F565B;" d="M174.026,334.351l-18.047,23.965c28.848,21.725,64.37,33.69,100.022,33.69v-30
	C226.819,362.005,197.706,352.184,174.026,334.351z"/>
<rect y="212.007" style="fill:#FF4B37;" width="121.002" height="30"/>
<rect x="391.006" y="212.007" style="fill:#FF0021;" width="121.002" height="30"/>
<g>
</g>
<g>
</g>
<g>
</g>
<g>
</g>
<g>
</g>
<g>
</g>
<g>
</g>
<g>
</g>
<g>
</g>
<g>
</g>
<g>
</g>
<g>
</g>
<g>
</g>
<g>
</g>
<g>
</g>
</svg>
