<?xml version="1.0" encoding="iso-8859-1"?>
<!-- Generator: Adobe Illustrator 19.0.0, SVG Export Plug-In . SVG Version: 6.00 Build 0)  -->
<svg version="1.1" id="Capa_1" xmlns="http://www.w3.org/2000/svg" xmlns:xlink="http://www.w3.org/1999/xlink" x="0px" y="0px"
	 viewBox="0 0 512 512" style="enable-background:new 0 0 512 512;" xml:space="preserve">
<path style="fill:#AAE8FD;" d="M256,0l-60,256l60,256c141.385,0,256-114.615,256-256S397.385,0,256,0z"/>
<path style="fill:#EFF6F9;" d="M0,256c0,141.385,114.615,256,256,256V0C114.615,0,0,114.615,0,256z"/>
<path style="fill:#014059;" d="M256,30l-60,226l60,226c124.816,0,226-101.184,226-226S380.816,30,256,30z"/>
<path style="fill:#015E82;" d="M30,256c0,124.816,101.184,226,226,226V30C131.184,30,30,131.184,30,256z"/>
<path style="fill:#AAE8FD;" d="M301,135l-45-5v191c17.094,0,31,13.907,31,31c0,4.032-0.758,7.946-2.253,11.635l23.854,16.856
	l64.918-79.599C327.433,258.231,301,197.766,301,135z"/>
<path style="fill:#FFFFFF;" d="M211,135c0,62.767-26.433,123.232-72.521,165.894l65.144,80.199l23.807-17.032
	c-1.612-3.812-2.43-7.87-2.43-12.061c0-17.093,13.906-31,31-31V130L211,135z"/>
<path style="fill:#D5011D;" d="M289.628,231c-10.489-25.877-16.599-53.028-18.2-81H256l-10,71l10,10H289.628z"/>
<path style="fill:#FF0021;" d="M256,231v-81h-15.428c-1.601,27.972-7.711,55.123-18.2,81H256z"/>
<path style="fill:#AAE8FD;" d="M256,60l-20,15l20,15c44.341,0,86.026,17.267,117.38,48.62l21.213-21.213
	C357.573,80.388,308.354,60,256,60z"/>
<path style="fill:#FFFFFF;" d="M117.407,117.407l21.213,21.213C169.974,107.267,211.659,90,256,90V60
	C203.646,60,154.427,80.388,117.407,117.407z"/>
<path style="fill:#AAE8FD;" d="M373.38,373.38C342.026,404.733,300.341,422,256,422l-20,15l20,15
	c52.354,0,101.573-20.388,138.593-57.407L373.38,373.38z"/>
<path style="fill:#FFFFFF;" d="M138.62,373.38l-21.213,21.213C154.427,431.612,203.646,452,256,452v-30
	C211.659,422,169.974,404.733,138.62,373.38z"/>
<path style="fill:#FF0021;" d="M347.117,317.129c-16.978-16.75-31.376-35.542-43.012-56.129h-96.209
	c-12.57,22.231-28.34,42.348-47.094,60.065l34.226,32.502C195.014,353.045,195,352.524,195,352c0-33.636,27.364-61,61-61
	s61,27.364,61,61c0,2.248-0.125,4.474-0.366,6.674L347.117,317.129z"/>
<path style="fill:#AAE8FD;" d="M256,120l-20,15l20,15c58.542,0,106,47.458,106,106s-47.458,106-106,106l-20,15l20,15
	c75.111,0,136-60.889,136-136S331.111,120,256,120z"/>
<path style="fill:#FFFFFF;" d="M150,256c0-58.542,47.458-106,106-106v-30c-75.111,0-136,60.889-136,136s60.889,136,136,136v-30
	C197.458,362,150,314.542,150,256z"/>
<g>
</g>
<g>
</g>
<g>
</g>
<g>
</g>
<g>
</g>
<g>
</g>
<g>
</g>
<g>
</g>
<g>
</g>
<g>
</g>
<g>
</g>
<g>
</g>
<g>
</g>
<g>
</g>
<g>
</g>
</svg>
