<?xml version="1.0" encoding="iso-8859-1"?>
<!-- Generator: Adobe Illustrator 19.0.0, SVG Export Plug-In . SVG Version: 6.00 Build 0)  -->
<svg version="1.1" id="Capa_1" xmlns="http://www.w3.org/2000/svg" xmlns:xlink="http://www.w3.org/1999/xlink" x="0px" y="0px"
	 viewBox="0 0 512 512" style="enable-background:new 0 0 512 512;" xml:space="preserve">
<path style="fill:#FFB037;" d="M256,0l-70,256l70,256c0.004,0,11.382-13.229,11.382-13.229C287.457,475.402,316.479,462,347.008,462
	H422c41.355,0,75-33.645,75-75V0H256z"/>
<path style="fill:#FFD237;" d="M15,0v387c0,41.355,33.645,75,75,75h75c30.528,0,59.551,13.402,79.626,36.771L256,512V0H15z"/>
<polygon style="fill:#D5011D;" points="467,30 256,30 186,75 256,120 467,120 "/>
<rect x="45" y="30" style="fill:#FF0021;" width="211" height="90"/>
<path style="fill:#014059;" d="M256,150l-60,158.738l60,158.734C280.805,444.764,313.175,432,347.008,432H422
	c24.813,0,45-20.187,45-45V150H256z"/>
<path style="fill:#015E82;" d="M45,150v237c0,24.813,20.187,45,45,45h75c33.83,0,66.199,12.762,91,35.472V150H45z"/>
<polygon style="fill:#EFF6F9;" points="437,60 256,60 226,75 256,90 437,90 "/>
<rect x="75" y="60" style="fill:#FFFFFF;" width="181" height="30"/>
<polygon style="fill:#FFB037;" points="429.5,394.5 297,394.5 297,187.5 387,187.5 387,304.5 429.5,304.5 "/>
<polygon style="fill:#EFF6F9;" points="327,364.5 399.5,364.5 399.5,334.5 357,334.5 357,217.5 327,217.5 "/>
<path style="fill:#FFD237;" d="M165.5,381.5c-49.902,0-90.5-40.598-90.5-90.5s40.598-90.5,90.5-90.5S256,241.098,256,291
	S215.402,381.5,165.5,381.5z"/>
<path style="fill:#EFF6F9;" d="M165.5,351.5c-33.36,0-60.5-27.14-60.5-60.5s27.14-60.5,60.5-60.5S226,257.64,226,291
	S198.86,351.5,165.5,351.5z"/>
<polygon style="fill:#FFD237;" points="195,328.5 135,328.5 135,298.5 165,298.5 165,283.5 135,283.5 135,253.5 195,253.5 "/>
<g>
</g>
<g>
</g>
<g>
</g>
<g>
</g>
<g>
</g>
<g>
</g>
<g>
</g>
<g>
</g>
<g>
</g>
<g>
</g>
<g>
</g>
<g>
</g>
<g>
</g>
<g>
</g>
<g>
</g>
</svg>
