<?xml version="1.0" encoding="iso-8859-1"?>
<!-- Generator: Adobe Illustrator 19.0.0, SVG Export Plug-In . SVG Version: 6.00 Build 0)  -->
<svg version="1.1" id="Capa_1" xmlns="http://www.w3.org/2000/svg" xmlns:xlink="http://www.w3.org/1999/xlink" x="0px" y="0px"
	 viewBox="0 0 512 512" style="enable-background:new 0 0 512 512;" xml:space="preserve">
<polygon style="fill:#AA665F;" points="302.111,111.951 348.229,66.998 284.496,57.737 256,0 236,111.951 256,145.46 
	312.998,175.426 "/>
<path style="fill:#BA7B75;" d="M255.994,0l-28.502,57.75l-63.732,9.261l46.117,44.953l-10.887,63.475l57.004-29.969
	C256,145.473,256,0.013,255.994,0z"/>
<path style="fill:#009AD2;" d="M256,191.997l-20,15l20,15c79.953,0,145,58.317,145,130s-65.047,130-145,130l-20,15l20,15
	c96.495,0,175-71.775,175-160S352.495,191.997,256,191.997z"/>
<path style="fill:#00B8FA;" d="M111,351.997c0-71.683,65.047-130,145-130v-30c-96.495,0-175,71.775-175,160s78.505,160,175,160v-30
	C176.047,481.997,111,423.68,111,351.997z"/>
<path style="fill:#009AD2;" d="M460.998,481.997L433.999,482c-17.852,0.001-36.165-14.729-39.99-32.166l-48.073-219.146
	c8.151-3.66,17.127-5.691,26.464-5.691H401v-30h-28.6c-21.92,0-43.31,7.646-60.229,21.529
	c-16.678,13.686-28.301,32.79-32.729,53.796L256,386.105h-10l10,65.892h17.268l35.543-175.545
	c1.93-9.112,5.774-17.454,11.044-24.654l44.852,204.463c6.857,31.258,37.295,55.741,69.296,55.738l26.996-0.003v-29.999H460.998z"/>
<path style="fill:#00B8FA;" d="M232.58,270.439l-0.024-0.117c-4.428-21.005-16.051-40.11-32.729-53.796
	c-16.918-13.884-38.308-21.529-60.228-21.529H111v30h28.6c9.337,0,18.313,2.031,26.463,5.69L117.99,449.834
	c-3.825,17.438-22.138,32.167-39.989,32.166l-27-0.003v30L77.999,512c32.003,0,62.438-24.482,69.295-55.738l44.852-204.465
	c5.271,7.203,9.116,15.548,11.045,24.664l35.542,175.536H256v-65.892L232.58,270.439z"/>
<g>
</g>
<g>
</g>
<g>
</g>
<g>
</g>
<g>
</g>
<g>
</g>
<g>
</g>
<g>
</g>
<g>
</g>
<g>
</g>
<g>
</g>
<g>
</g>
<g>
</g>
<g>
</g>
<g>
</g>
</svg>
