<?xml version="1.0" encoding="iso-8859-1"?>
<!-- Generator: Adobe Illustrator 19.0.0, SVG Export Plug-In . SVG Version: 6.00 Build 0)  -->
<svg version="1.1" id="Capa_1" xmlns="http://www.w3.org/2000/svg" xmlns:xlink="http://www.w3.org/1999/xlink" x="0px" y="0px"
	 viewBox="0 0 512 512" style="enable-background:new 0 0 512 512;" xml:space="preserve">
<path style="fill:#BA7B75;" d="M377,30h-45v75h-31V45c0-24.813-20.187-45-45-45l-30,135l30,285h1c140.833,0,255-114.167,255-255
	C512,90.561,451.439,30,377,30z"/>
<path style="fill:#FF9037;" d="M181,0v30h30v75h-31V30h-45C60.561,30,0,90.561,0,165c0,140.833,114.167,255,255,255h1V0H181z"/>
<path style="fill:#995149;" d="M257,390v-30c107.523,0,195-87.477,195-195h30c0,60.1-23.404,116.602-65.901,159.099
	S317.1,390,257,390z"/>
<path style="fill:#AA665F;" d="M255,390c-60.1,0-116.602-23.404-159.099-65.901S30,225.1,30,165h30c0,107.523,87.477,195,195,195
	V390z"/>
<path style="fill:#995149;" d="M257,330v-30c74.439,0,135-60.561,135-135h30C422,255.981,347.981,330,257,330z"/>
<g>
	<path style="fill:#AA665F;" d="M255,330c-90.981,0-165-74.019-165-165h30c0,74.439,60.561,135,135,135V330z"/>
	
		<rect x="170.506" y="385.094" transform="matrix(-0.9367 -0.3501 0.3501 -0.9367 214.4486 866.0742)" style="fill:#AA665F;" width="30" height="57.119"/>
</g>
<rect x="297.954" y="398.686" transform="matrix(-0.3502 -0.9367 0.9367 -0.3502 53.367 864.3953)" style="fill:#995149;" width="57.121" height="30.001"/>
<path d="M256,90l-30,182.002l30,182.002l7.065-3.773C341.391,408.409,392,314.112,392,210V90H256z"/>
<path style="fill:#012231;" d="M120,90v120c0,104.112,50.609,198.409,128.935,240.231l7.065,3.773V90H120z"/>
<path style="fill:#B7C3C8;" d="M460.787,394.601l-4.394,4.394C401.145,454.242,328.572,481.866,256,481.866l-30,15.067L256,512
	c81.617,0,158.472-30.988,217.127-87.399H512v-30H460.787z"/>
<path style="fill:#D1DEE4;" d="M55.606,398.994l-4.394-4.394H0v30h38.873C97.528,481.012,174.383,512,256,512v-30.134
	C183.428,481.866,110.855,454.242,55.606,398.994z"/>
<path style="fill:#AA011A;" d="M299.6,180l20,177.712C346.481,316.946,362,265.096,362,210L299.6,180z"/>
<path style="fill:#012231;" d="M257.2,180l20,224.956c16.15-13.077,30.406-29.056,42.4-47.244V180H257.2z"/>
<path style="fill:#AA011A;" d="M236,180l20,239.779c7.381-4.398,14.454-9.36,21.2-14.823V180H236z"/>
<path style="fill:#D5011D;" d="M214.8,180l20,224.956c6.746,5.463,13.819,10.425,21.2,14.823V180H214.8z"/>
<path style="fill:#014059;" d="M172.4,180l20,177.712c11.994,18.189,26.25,34.168,42.4,47.244V180H172.4z"/>
<path style="fill:#D5011D;" d="M150,210c0,55.096,15.519,106.946,42.4,147.712V180L150,210z"/>
<polygon style="fill:#012231;" points="362,120 256,120 226,165 256,210 362,210 "/>
<rect x="150" y="120" style="fill:#014059;" width="106" height="90"/>
<polygon style="fill:#EFF6F9;" points="332,150 256,150 236,165 256,180 332,180 "/>
<rect x="180" y="150" style="fill:#FFFFFF;" width="76" height="30"/>
<g>
</g>
<g>
</g>
<g>
</g>
<g>
</g>
<g>
</g>
<g>
</g>
<g>
</g>
<g>
</g>
<g>
</g>
<g>
</g>
<g>
</g>
<g>
</g>
<g>
</g>
<g>
</g>
<g>
</g>
</svg>
