<?xml version="1.0" encoding="iso-8859-1"?>
<!-- Generator: Adobe Illustrator 19.0.0, SVG Export Plug-In . SVG Version: 6.00 Build 0)  -->
<svg version="1.1" id="Capa_1" xmlns="http://www.w3.org/2000/svg" xmlns:xlink="http://www.w3.org/1999/xlink" x="0px" y="0px"
	 viewBox="0 0 512 512" style="enable-background:new 0 0 512 512;" xml:space="preserve">
<polygon style="fill:#D5011D;" points="326,156.327 326,224.34 226,269.34 256,156.327 "/>
<polygon style="fill:#FF0021;" points="256,156.327 256,269.34 186,224.34 186,156.327 "/>
<polygon style="fill:#FFB037;" points="326,224.34 326,318.91 256,377.663 226,301.001 256,224.34 "/>
<polygon style="fill:#FFD237;" points="256,224.34 256,377.663 186,318.91 186,224.34 "/>
<polygon style="fill:#D5011D;" points="286,322.483 256,322.483 241,288.412 256,254.34 286,254.34 "/>
<path style="fill:#FFD237;" d="M60,301c-24.813,0-45-20.187-45-45s20.187-45,45-45s45,20.187,45,45S84.813,301,60,301z"/>
<path style="fill:#FFB037;" d="M452,301c-24.813,0-45-20.187-45-45s20.187-45,45-45s45,20.187,45,45S476.813,301,452,301z"/>
<rect x="34.437" y="83.4" style="fill:#FFD237;" width="30" height="90"/>
<rect x="447.57" y="83.4" style="fill:#FFB037;" width="30" height="90"/>
<g>
	<rect x="241" style="fill:#FFD237;" width="30" height="29.42"/>
	<rect x="181" style="fill:#FFD237;" width="30" height="37.458"/>
</g>
<rect x="301" style="fill:#FFB037;" width="30" height="37.458"/>
<path style="fill:#FF0021;" d="M55.921,149.576c-1.049,1.969-2.175,3.931-3.054,6.055c-9.511,22.961,1.393,49.285,24.354,58.795
	c21.843,9.047,46.679-0.405,57.295-21.082c22.599-44.019,68.592-74.005,121.485-74.005l30-44.959L256,29.42
	C169.33,29.42,94.028,78.083,55.921,149.576z"/>
<path style="fill:#D5011D;" d="M459.133,155.63c-0.88-2.124-2.005-4.086-3.054-6.055C417.972,78.083,342.67,29.42,256,29.42v89.917
	c52.893,0,98.886,29.987,121.485,74.005c10.616,20.678,35.452,30.13,57.295,21.082C457.74,204.915,468.644,178.591,459.133,155.63z"
	/>
<path style="fill:#FFB037;" d="M472.992,149.894c-1.005-2.429-2.119-4.49-3.103-6.308l-0.573-1.065
	C427.199,63.505,345.461,14.42,256,14.42l-15,15l15,15c78.355,0,149.949,42.997,186.841,112.209l0.66,1.226
	c0.699,1.293,1.36,2.515,1.773,3.515c3.066,7.403,3.066,15.558,0,22.961s-8.832,13.169-16.235,16.236
	c-3.672,1.521-7.519,2.292-11.437,2.292c-11.333-0.001-21.592-6.272-26.774-16.367c-26.016-50.675-77.679-82.155-134.828-82.155
	l-15,15l15,15c45.849,0,87.285,25.234,108.141,65.856c10.343,20.147,30.827,32.664,53.457,32.666c7.882,0,15.593-1.54,22.922-4.575
	c14.807-6.133,26.339-17.666,32.472-32.472S479.124,164.696,472.992,149.894z"/>
<g>
	<path style="fill:#FFD237;" d="M121.171,186.492c-5.183,10.095-15.44,16.367-26.77,16.367c-3.92,0-7.769-0.771-11.44-2.292
		c-7.403-3.066-13.169-8.833-16.236-16.236s-3.066-15.558,0.001-22.962c0.413-0.998,1.075-2.221,1.775-3.517l0.657-1.221
		C106.051,87.417,177.645,44.42,256,44.42v-30c-89.461,0-171.199,49.085-213.317,128.101l-0.571,1.062
		c-0.983,1.818-2.098,3.879-3.103,6.306c-6.134,14.806-6.134,31.115,0,45.922c6.133,14.807,17.665,26.339,32.472,32.472
		c7.33,3.036,15.041,4.575,22.92,4.575c22.63,0,43.115-12.517,53.458-32.666c20.854-40.622,62.292-65.856,108.141-65.856v-30
		C198.85,104.337,147.187,135.817,121.171,186.492z"/>
	<rect x="34.437" y="338.6" style="fill:#FFD237;" width="30" height="90"/>
</g>
<rect x="447.57" y="338.6" style="fill:#FFB037;" width="30" height="90"/>
<g>
	<rect x="241" y="482.58" style="fill:#FFD237;" width="30" height="29.42"/>
	<rect x="181" y="474.54" style="fill:#FFD237;" width="30" height="37.458"/>
</g>
<rect x="301" y="474.54" style="fill:#FFB037;" width="30" height="37.458"/>
<path style="fill:#FF0021;" d="M55.921,362.424c-1.049-1.969-2.175-3.931-3.054-6.055c-9.511-22.961,1.393-49.285,24.354-58.795
	c21.843-9.047,46.679,0.405,57.295,21.082c22.599,44.019,68.592,74.005,121.485,74.005l30,44.959l-30,44.959
	C169.33,482.58,94.028,433.917,55.921,362.424z"/>
<path style="fill:#D5011D;" d="M459.133,356.37c-0.88,2.124-2.005,4.086-3.054,6.055C417.972,433.917,342.67,482.58,256,482.58
	v-89.917c52.893,0,98.886-29.987,121.485-74.005c10.616-20.678,35.452-30.13,57.295-21.082
	C457.74,307.085,468.644,333.409,459.133,356.37z"/>
<path style="fill:#FFB037;" d="M472.992,362.106c-1.005,2.429-2.119,4.49-3.103,6.308l-0.573,1.065
	C427.199,448.495,345.461,497.58,256,497.58l-15-15l15-15c78.355,0,149.949-42.997,186.841-112.209l0.66-1.226
	c0.699-1.293,1.36-2.515,1.773-3.515c3.066-7.403,3.066-15.558,0-22.961s-8.832-13.169-16.235-16.236
	c-3.672-1.521-7.519-2.292-11.437-2.292c-11.333,0.001-21.592,6.272-26.774,16.367c-26.016,50.675-77.679,82.155-134.828,82.155
	l-15-15l15-15c45.849,0,87.285-25.234,108.141-65.856c10.343-20.147,30.827-32.664,53.457-32.666c7.882,0,15.593,1.54,22.922,4.575
	c14.807,6.133,26.339,17.666,32.472,32.472S479.124,347.304,472.992,362.106z"/>
<path style="fill:#FFD237;" d="M121.171,325.508c-5.183-10.095-15.44-16.367-26.77-16.367c-3.92,0-7.769,0.771-11.44,2.292
	c-7.403,3.066-13.169,8.833-16.236,16.236s-3.066,15.558,0.001,22.962c0.413,0.998,1.075,2.221,1.775,3.517l0.657,1.221
	C106.051,424.583,177.645,467.58,256,467.58v30c-89.461,0-171.199-49.085-213.317-128.101l-0.571-1.062
	c-0.983-1.818-2.098-3.879-3.103-6.306c-6.134-14.806-6.134-31.115,0-45.922c6.133-14.807,17.665-26.339,32.472-32.472
	c7.33-3.036,15.041-4.575,22.92-4.575c22.63,0,43.115,12.517,53.458,32.666c20.854,40.622,62.292,65.856,108.141,65.856v30
	C198.85,407.663,147.187,376.183,121.171,325.508z"/>
<rect x="226" y="254.34" style="fill:#FF0021;" width="30" height="68.14"/>
<g>
</g>
<g>
</g>
<g>
</g>
<g>
</g>
<g>
</g>
<g>
</g>
<g>
</g>
<g>
</g>
<g>
</g>
<g>
</g>
<g>
</g>
<g>
</g>
<g>
</g>
<g>
</g>
<g>
</g>
</svg>
