<?xml version="1.0" encoding="iso-8859-1"?>
<!-- Generator: Adobe Illustrator 19.0.0, SVG Export Plug-In . SVG Version: 6.00 Build 0)  -->
<svg version="1.1" id="Capa_1" xmlns="http://www.w3.org/2000/svg" xmlns:xlink="http://www.w3.org/1999/xlink" x="0px" y="0px"
	 viewBox="0 0 512 512" style="enable-background:new 0 0 512 512;" xml:space="preserve">
<path style="fill:#007CAA;" d="M256,0L99.265,256L256,512c141.159,0,256-114.841,256-256S397.159,0,256,0z"/>
<path style="fill:#009AD2;" d="M0,256c0,141.159,114.841,256,256,256V0C114.841,0,0,114.841,0,256z"/>
<path style="fill:#EFF6F9;" d="M256,30L117.633,256L256,482c124.617,0,226-101.383,226-226S380.617,30,256,30z"/>
<path style="fill:#FFFFFF;" d="M30,256c0,124.617,101.383,226,226,226V30C131.383,30,30,131.383,30,256z"/>
<path style="fill:#5CD4FF;" d="M256,120l-83.265,136L256,392c74.991,0,136-61.009,136-136S330.991,120,256,120z"/>
<path style="fill:#AAE8FD;" d="M120,256c0,74.991,61.009,136,136,136V120C181.009,120,120,181.009,120,256z"/>
<polygon style="fill:#FFE17A;" points="362,170.9 256,170.9 226,283.317 362,238.317 "/>
<path style="fill:#FFF0BC;" d="M256,170.9H150c0,0,0.01,66.884,0.015,67.417l105.985,45V170.9z"/>
<path style="fill:#009AD2;" d="M256,238.317l-45,76.841L256,392l5.978-2.598C322.25,363.211,361.373,304.028,362,238.317H256z"/>
<g>
	<path style="fill:#00B8FA;" d="M150.015,238.317c0.627,65.712,39.736,124.895,100.007,151.085L256,392V238.317H150.015z"/>
	<rect x="60" y="241" style="fill:#00B8FA;" width="30" height="30"/>
</g>
<rect x="422" y="241" style="fill:#009AD2;" width="30" height="30"/>
<path style="fill:#012231;" d="M394.653,117.347C357.672,80.366,308.431,60,256,60l-15,15l15,15
	c44.417,0,86.125,17.246,117.44,48.56L394.653,117.347z"/>
<path style="fill:#014059;" d="M117.347,117.347l21.213,21.213C169.875,107.246,211.583,90,256,90V60
	C203.569,60,154.328,80.366,117.347,117.347z"/>
<path style="fill:#012231;" d="M338.32,433.979l-12.568-27.24c-22.164,10.226-45.958,15.339-69.752,15.339l-15,15.004l15,15
	C284.078,452.082,312.166,446.046,338.32,433.979z"/>
<path style="fill:#014059;" d="M173.679,433.979c26.161,12.07,54.237,18.104,82.321,18.104v-30.004
	c-23.794,0-47.588-5.113-69.753-15.339L173.679,433.979z"/>
<polygon style="fill:#D5011D;" points="286,271.915 256,271.915 241,301.915 256,331.915 286,331.915 "/>
<rect x="226" y="271.92" style="fill:#FF0021;" width="30" height="60"/>
<g>
</g>
<g>
</g>
<g>
</g>
<g>
</g>
<g>
</g>
<g>
</g>
<g>
</g>
<g>
</g>
<g>
</g>
<g>
</g>
<g>
</g>
<g>
</g>
<g>
</g>
<g>
</g>
<g>
</g>
</svg>
