<?xml version="1.0" encoding="iso-8859-1"?>
<!-- Generator: Adobe Illustrator 19.0.0, SVG Export Plug-In . SVG Version: 6.00 Build 0)  -->
<svg version="1.1" id="Capa_1" xmlns="http://www.w3.org/2000/svg" xmlns:xlink="http://www.w3.org/1999/xlink" x="0px" y="0px"
	 viewBox="0 0 512 512" style="enable-background:new 0 0 512 512;" xml:space="preserve">
<path style="fill:#0A7D5A;" d="M512,467H256v-90h256l-40.008,45L512,467z"/>
<path style="fill:#0DA678;" d="M40.008,422L0,377h256v90H0L40.008,422z"/>
<path style="fill:#D5011D;" d="M413.223,103.202c-44.384,26.904-108.069,24.199-148.14-6.291L256,90l-60,357.577h141.817
	c62.396-69.922,98.181-170.849,98.181-276.903V90L413.223,103.202z"/>
<path style="fill:#FF0021;" d="M246.917,96.912c-40.068,30.49-103.756,33.194-148.144,6.291L75.998,90v80.673
	c0,106.054,35.785,206.981,98.181,276.902H256V90L246.917,96.912z"/>
<polygon style="fill:#EFF6F9;" points="390.198,195.92 390.198,165.92 256,165.92 241,180.92 256,195.92 "/>
<rect x="121.8" y="165.92" style="fill:#FFFFFF;" width="134.2" height="30"/>
<path style="fill:#41BE99;" d="M256,0h-30v60h-32.582c1.665-4.695,2.58-9.742,2.58-15c0-24.813-20.187-45-45-45h-90v30h30v30h-45v30
	H256l30-15L256,0z M120.998,60V30h30c8.271,0,15,6.729,15,15s-6.729,15-15,15H120.998z"/>
<path style="fill:#0DA678;" d="M421.002,60V30h30V0h-90c-24.813,0-45,20.187-45,45c0,5.258,0.915,10.305,2.58,15H286V0h-30v90
	h210.002V60H421.002z M346.002,45c0-8.271,6.729-15,15-15h30v30h-30C352.73,60,346.002,53.271,346.002,45z"/>
<path style="fill:#EFF6F9;" d="M402.431,225.92H256l-60,226.082l123.809-30C363.912,370.31,392.799,301.095,402.431,225.92z"/>
<path style="fill:#FFFFFF;" d="M109.565,225.92c9.633,75.175,38.521,144.39,82.624,196.081l33.812,30l30-181.081v-45L109.565,225.92
	L109.565,225.92z"/>
<path style="fill:#D5011D;" d="M256,315.92L241,392h45v-46.08c16.568,0,30-13.431,30-30v-60C282.863,255.92,256,282.783,256,315.92z
	"/>
<path style="fill:#FF0021;" d="M241,255.92c-8.284,0-15,6.716-15,15v20c-24.853,0-45,20.147-45,45s20.147,45,45,45V452h30V270.92
	C256,262.636,249.284,255.92,241,255.92z"/>
<polygon style="fill:#0DA678;" points="406,422 256,422 226,467 256,512 406,512 "/>
<g>
	<rect x="106" y="422" style="fill:#41BE99;" width="150" height="90"/>
	<polygon style="fill:#41BE99;" points="376,452 256,452 226,467 256,482 376,482 	"/>
</g>
<rect x="136" y="452" style="fill:#4BEBBD;" width="120" height="30"/>
<g>
</g>
<g>
</g>
<g>
</g>
<g>
</g>
<g>
</g>
<g>
</g>
<g>
</g>
<g>
</g>
<g>
</g>
<g>
</g>
<g>
</g>
<g>
</g>
<g>
</g>
<g>
</g>
<g>
</g>
</svg>
