<?xml version="1.0" encoding="iso-8859-1"?>
<!-- Generator: Adobe Illustrator 19.0.0, SVG Export Plug-In . SVG Version: 6.00 Build 0)  -->
<svg version="1.1" id="Capa_1" xmlns="http://www.w3.org/2000/svg" xmlns:xlink="http://www.w3.org/1999/xlink" x="0px" y="0px"
	 viewBox="0 0 511.999 511.999" style="enable-background:new 0 0 511.999 511.999;" xml:space="preserve">
<path d="M339.361,60v176.731c0,82.612-48.999,157.234-124.83,190.107l-62.342,27.025l19.581,15.559
	c20.414,16.221,42.829,29.676,66.625,39.991l5.966,2.586l5.966-2.586c108.759-47.148,179.034-154.182,179.034-272.683V60H339.361z"
	/>
<polygon points="429.361,0 309.361,0 289.361,15 309.361,30 429.361,30 "/>
<g>
	<rect x="84.359" style="fill:#012231;" width="225" height="30"/>
	<path style="fill:#012231;" d="M84.361,150h135v86.731c0,34.761-20.631,66.167-52.559,80.008l-84.165,36.485l6.921,14.114
		c9.381,19.133,20.88,37.319,34.178,54.055l7.156,9.005l71.706-31.084c64.856-28.116,106.763-91.934,106.763-162.583V60h-225V150z"
		/>
</g>
<g>
</g>
<g>
</g>
<g>
</g>
<g>
</g>
<g>
</g>
<g>
</g>
<g>
</g>
<g>
</g>
<g>
</g>
<g>
</g>
<g>
</g>
<g>
</g>
<g>
</g>
<g>
</g>
<g>
</g>
</svg>
