<?xml version="1.0" encoding="iso-8859-1"?>
<!-- Generator: Adobe Illustrator 19.0.0, SVG Export Plug-In . SVG Version: 6.00 Build 0)  -->
<svg version="1.1" id="Capa_1" xmlns="http://www.w3.org/2000/svg" xmlns:xlink="http://www.w3.org/1999/xlink" x="0px" y="0px"
	 viewBox="0 0 512 512" style="enable-background:new 0 0 512 512;" xml:space="preserve">
<path style="fill:#FF9037;" d="M256,0l-60,256l60,256c141.385,0,256-114.615,256-256S397.385,0,256,0z"/>
<path style="fill:#FFB037;" d="M0,256c0,141.385,114.615,256,256,256V0C114.615,0,0,114.615,0,256z"/>
<path style="fill:#014059;" d="M256,30l-60,226l60,226c124.816,0,226-101.184,226-226S380.816,30,256,30z"/>
<path style="fill:#015E82;" d="M30,256c0,124.816,101.184,226,226,226V30C131.184,30,30,131.184,30,256z"/>
<path d="M256,60l-60,196l60,196c108.248,0,196-87.752,196-196S364.248,60,256,60z"/>
<path style="fill:#012231;" d="M60,256c0,108.248,87.752,196,196,196V60C147.752,60,60,147.752,60,256z"/>
<path style="fill:#FF9037;" d="M256,90l-60,166l60,166c91.679,0,166-74.321,166-166S347.679,90,256,90z"/>
<path style="fill:#FFB037;" d="M90,256c0,91.679,74.321,166,166,166V90C164.321,90,90,164.321,90,256z"/>
<path style="fill:#FFFFFF;" d="M256,150.05l-15-29.227c-30.654,3.342-59.049,16.894-81.167,39.011
	C134.146,185.521,120,219.673,120,256s14.146,70.479,39.833,96.167c22.117,22.117,50.513,35.669,81.167,39.011l15-29.227
	c-15.394,0-30.787-3.327-45-9.974V232.213l45,45v-42.427l-63.599-63.599C211.168,157.096,233.584,150.05,256,150.05z M181,330.906
	c-19.991-20.016-31-46.615-31-74.906c0-23.25,7.435-45.357,21.18-63.607l9.82,9.82V330.906z"/>
<path style="fill:#EFF6F9;" d="M331,202.213l31.773-31.773l-10.607-10.606C326.479,134.146,292.327,120,256,120
	c-5.048,0-10.052,0.283-15,0.823v270.355c4.948,0.539,9.952,0.823,15,0.823c36.327,0,70.479-14.146,96.167-39.833L331,331V202.213z
	 M271,219.787v-68.659c17.26,2.447,34.03,9.121,48.599,20.061L271,219.787z M271,262.213l30-30v119.743
	c-9.586,4.483-19.702,7.474-30,8.934V262.213z"/>
<g>
</g>
<g>
</g>
<g>
</g>
<g>
</g>
<g>
</g>
<g>
</g>
<g>
</g>
<g>
</g>
<g>
</g>
<g>
</g>
<g>
</g>
<g>
</g>
<g>
</g>
<g>
</g>
<g>
</g>
</svg>
