<?xml version="1.0" encoding="iso-8859-1"?>
<!-- Generator: Adobe Illustrator 19.0.0, SVG Export Plug-In . SVG Version: 6.00 Build 0)  -->
<svg version="1.1" id="Capa_1" xmlns="http://www.w3.org/2000/svg" xmlns:xlink="http://www.w3.org/1999/xlink" x="0px" y="0px"
	 viewBox="0 0 512 512" style="enable-background:new 0 0 512 512;" xml:space="preserve">
<path style="fill:#015E82;" d="M256,0L99.265,256L256,512c141.159,0,256-114.841,256-256S397.159,0,256,0z"/>
<path style="fill:#007CAA;" d="M0,256c0,141.159,114.841,256,256,256V0C114.841,0,0,114.841,0,256z"/>
<rect x="211" y="331" style="fill:#FFFFFF;" width="30" height="61"/>
<g>
	<rect x="271" y="332" style="fill:#AAE8FD;" width="30" height="60"/>
	<path style="fill:#AAE8FD;" d="M473.94,196H376l0.01-75.5C344.07,92.19,302.04,75,256,75l-30-22.5L256,30
		C360.04,30,447.66,100.3,473.94,196z"/>
	<path style="fill:#AAE8FD;" d="M271,165h30c0-24.813-20.187-45-45-45l-15,15l15,15C264.271,150,271,156.729,271,165z"/>
	<path style="fill:#AAE8FD;" d="M256,187.751l-15,15.499l15,30l11.283,12.866C269.68,248.848,271,252.358,271,256
		c0,8.271-6.729,15-15,15l-15,15l15,15c24.813,0,45-20.187,45-45c0-10.926-3.966-21.463-11.164-29.667L256,187.751z"/>
</g>
<g>
	<path style="fill:#FFFFFF;" d="M241,256h-30c0,24.813,20.187,45,45,45v-30C247.729,271,241,264.271,241,256z"/>
	<path style="fill:#FFFFFF;" d="M244.713,174.881C242.318,172.149,241,168.64,241,165c0-8.271,6.729-15,15-15v-30
		c-24.813,0-45,20.187-45,45c0,10.919,3.961,21.451,11.156,29.659L256,233.25v-45.499L244.713,174.881z"/>
</g>
<path style="fill:#AAE8FD;" d="M482,256c0-5.041-0.183-10.04-0.51-15H331v30h45.001l0.009,120.5C344.06,419.81,302.04,437,256,437
	l-30,22.5l30,22.5c119.78,0,217.79-93.173,225.51-210.999C481.817,266.039,482,261.041,482,256z"/>
<path style="fill:#FFFFFF;" d="M256,75c-46.04,0-88.07,17.19-120.01,45.5v271C167.94,419.81,209.96,437,256,437v45
	C131.18,482,30,380.82,30,256S131.18,30,256,30V75z"/>
<g>
</g>
<g>
</g>
<g>
</g>
<g>
</g>
<g>
</g>
<g>
</g>
<g>
</g>
<g>
</g>
<g>
</g>
<g>
</g>
<g>
</g>
<g>
</g>
<g>
</g>
<g>
</g>
<g>
</g>
</svg>
