<?xml version="1.0" encoding="iso-8859-1"?>
<!-- Generator: Adobe Illustrator 19.0.0, SVG Export Plug-In . SVG Version: 6.00 Build 0)  -->
<svg version="1.1" id="Capa_1" xmlns="http://www.w3.org/2000/svg" xmlns:xlink="http://www.w3.org/1999/xlink" x="0px" y="0px"
	 viewBox="0 0 512 512" style="enable-background:new 0 0 512 512;" xml:space="preserve">
<path style="fill:#3C8819;" d="M458.756,221.964l-22.049-77.644c-1.132-3.985-1.706-8.133-1.706-12.326
	c0-12.904,5.556-25.207,15.244-33.755l11.527-10.173l-44.62-48.125l-10.655,7.197c-13.333,9.008-28.641,13.575-45.499,13.575
	c-33.034,0-62.938-20.237-76.185-51.557L280.94,0H256v512l146.938-116.049c39.442-31.521,62.063-78.524,62.063-128.957
	C465.001,251.707,462.899,236.557,458.756,221.964z"/>
<g>
	<path style="fill:#4FA811;" d="M231.06,0l-3.873,9.157c-13.246,31.319-43.15,51.557-76.185,51.557
		c-16.858,0-32.166-4.567-45.499-13.575l-10.655-7.197l-44.62,48.125L61.755,98.24c9.688,8.548,15.244,20.851,15.244,33.755
		c0,4.193-0.574,8.341-1.706,12.326l-22.049,77.644c-4.144,14.593-6.245,29.743-6.245,45.03c0,50.433,22.621,97.437,62.13,129.01
		L256,512V0H231.06z"/>
	<path style="fill:#4FA811;" d="M375.363,379.503l8.912-7.04c28.272-22.594,45.987-54.985,49.899-90.469l-88.811-30L375.363,379.503
		z"/>
</g>
<polygon style="fill:#FFB037;" points="285.725,256.994 315.725,426.609 375.363,379.503 375.363,256.994 "/>
<polygon style="fill:#4FA811;" points="236,256.994 256,473.746 315.725,426.609 315.725,256.994 "/>
<path style="fill:#FFD237;" d="M176.275,256.994l20,169.616L256,473.785c0-0.039,0-216.791,0-216.791L176.275,256.994
	L176.275,256.994z"/>
<polygon style="fill:#6BBF32;" points="116.637,256.994 136.637,379.503 196.275,426.61 196.275,256.994 "/>
<path style="fill:#FFD237;" d="M127.791,372.516l8.846,6.987V251.994l-58.811,30C81.739,317.478,99.461,349.875,127.791,372.516z"/>
<path d="M241.002,176.994c0,0.018,14.998,0,14.998,0H241.002z"/>
<path style="fill:#FFD237;" d="M256,251.994v15V251.994z"/>
<path style="fill:#FFB037;" d="M434.159,251.994l-125.025-35.088l105.664-39.912l-6.951-24.478
	c-1.889-6.651-2.847-13.556-2.847-20.521c0-16.315,5.326-32.053,14.944-44.917l-7.831-8.445
	c-15.554,8.025-32.692,12.082-51.116,12.082c-35.911,0-69.043-17.386-90.126-45.884l-44.918,222.164l30.046,15h178.174
	c0.545-4.946,0.827-9.952,0.827-15C435.001,261.966,434.71,256.96,434.159,251.994z"/>
<path style="fill:#FFD237;" d="M241.002,45.175c-21.094,28.293-54.234,45.539-90,45.539c-18.424,0-35.563-4.057-51.116-12.082
	l-7.831,8.445c9.618,12.864,14.944,28.602,14.944,44.917c0,6.966-0.958,13.87-2.847,20.521l-6.951,24.478l117.295,44.318
	L77.841,251.994c-0.551,4.966-0.842,9.972-0.842,15c0,5.049,0.281,10.054,0.827,15H256v-70L241.002,45.175z"/>
<path style="fill:#4FA811;" d="M270.872,196.977V44.83c-3.447-4.659-6.583-9.604-9.344-14.83h-11.057
	c-2.829,5.355-5.922,10.416-9.47,15.175v151.819L270.872,196.977z"/>
<path style="fill:#FFD237;" d="M256.002,311.994c-0.002,0-30.002,54-30.002,54l30,54c29.826,0,54.002-24.177,54.002-54
	S285.826,311.994,256.002,311.994z"/>
<path style="fill:#FFF0BC;" d="M202.002,365.994c0,29.823,24.175,53.999,53.998,54v-108
	C226.178,311.995,202.002,336.171,202.002,365.994z"/>
<path style="fill:#4FA811;" d="M434.159,251.994c-0.821-7.395-2.236-14.7-4.263-21.835l-15.098-53.165H256l-30.066,37.502
	L256,251.998L434.159,251.994z"/>
<path style="fill:#6BBF32;" d="M256,176.994H97.201l-15.098,53.165c-2.027,7.135-3.442,14.44-4.263,21.835H256V176.994z"/>
<g>
</g>
<g>
</g>
<g>
</g>
<g>
</g>
<g>
</g>
<g>
</g>
<g>
</g>
<g>
</g>
<g>
</g>
<g>
</g>
<g>
</g>
<g>
</g>
<g>
</g>
<g>
</g>
<g>
</g>
</svg>
