<?xml version="1.0" encoding="iso-8859-1"?>
<!-- Generator: Adobe Illustrator 19.0.0, SVG Export Plug-In . SVG Version: 6.00 Build 0)  -->
<svg version="1.1" id="Capa_1" xmlns="http://www.w3.org/2000/svg" xmlns:xlink="http://www.w3.org/1999/xlink" x="0px" y="0px"
	 viewBox="0 0 512 512" style="enable-background:new 0 0 512 512;" xml:space="preserve">
<path style="fill:#AAE8FD;" d="M256,0L99.265,256L256,512c141.159,0,256-114.841,256-256S397.159,0,256,0z"/>
<path style="fill:#EFF6F9;" d="M0,256c0,141.159,114.841,256,256,256V0C114.841,0,0,114.841,0,256z"/>
<path style="fill:#D5011D;" d="M256,30L117.633,256L256,482c124.617,0,226-101.383,226-226S380.617,30,256,30z"/>
<path style="fill:#FF0021;" d="M30,256c0,124.617,101.383,226,226,226V30C131.383,30,30,131.383,30,256z"/>
<path style="fill:#EFF6F9;" d="M256,120l-83.265,136L256,392c74.991,0,136-61.009,136-136S330.991,120,256,120z"/>
<path style="fill:#FFFFFF;" d="M120,256c0,74.991,61.009,136,136,136V120C181.009,120,120,181.009,120,256z"/>
<path style="fill:#007CAA;" d="M348.173,203.693l-38.838-39.273C293.659,155.256,275.432,150,256,150l-61.734,106L256,362
	c19.432,0,37.659-5.256,53.334-14.42l38.838-39.271C356.97,292.865,362,275.009,362,256
	C362,236.992,356.971,219.136,348.173,203.693z"/>
<path style="fill:#009AD2;" d="M202.665,164.42l-38.837,39.271C155.03,219.135,150,236.991,150,256
	c0,19.007,5.029,36.862,13.825,52.304l38.142,38.864C217.799,356.587,236.279,362,256,362V150
	C236.568,150,218.341,155.256,202.665,164.42z"/>
<path style="fill:#EFF6F9;" d="M412.651,200.971l28.305-9.942C413.426,112.656,339.098,60,256,60l-15,15l15,15
	C326.382,90,389.335,134.596,412.651,200.971z"/>
<path style="fill:#FFFFFF;" d="M71.044,191.029l28.305,9.942C122.665,134.596,185.618,90,256,90V60
	C172.902,60,98.574,112.656,71.044,191.029z"/>
<path style="fill:#EFF6F9;" d="M256,422l-15,15l15,15c83.098,0,157.426-52.656,184.956-131.029l-28.305-9.942
	C389.335,377.404,326.382,422,256,422z"/>
<path style="fill:#FFFFFF;" d="M99.349,311.029l-28.305,9.942C98.575,399.344,172.903,452,256,452v-30
	C185.618,422,122.665,377.404,99.349,311.029z"/>
<g>
	<path style="fill:#5CD4FF;" d="M317.734,256l30.468,52.325c-9.251,16.277-22.689,29.855-38.852,39.281L286.863,309L317.734,256z"/>
	<path style="fill:#5CD4FF;" d="M348.202,203.675L317.734,256l-30.871-53l22.488-38.607
		C325.513,173.819,338.952,187.398,348.202,203.675z"/>
	<polygon style="fill:#5CD4FF;" points="256,256 286.863,309 256,362 	"/>
	<polygon style="fill:#5CD4FF;" points="286.863,203 256,256 256,150 	"/>
</g>
<g>
	<polygon style="fill:#AAE8FD;" points="256,256 256,362 225.137,309 	"/>
	<polygon style="fill:#AAE8FD;" points="256,150 256,256 225.137,203 	"/>
	<path style="fill:#AAE8FD;" d="M225.137,309l-22.488,38.607c-16.163-9.426-29.601-23.005-38.852-39.281L194.266,256L225.137,309z"
		/>
	<path style="fill:#AAE8FD;" d="M202.65,164.393L225.137,203l-30.871,53l-30.468-52.325
		C173.048,187.398,186.487,173.819,202.65,164.393z"/>
</g>
<g>
</g>
<g>
</g>
<g>
</g>
<g>
</g>
<g>
</g>
<g>
</g>
<g>
</g>
<g>
</g>
<g>
</g>
<g>
</g>
<g>
</g>
<g>
</g>
<g>
</g>
<g>
</g>
<g>
</g>
</svg>
