<?xml version="1.0" encoding="iso-8859-1"?>
<!-- Generator: Adobe Illustrator 19.0.0, SVG Export Plug-In . SVG Version: 6.00 Build 0)  -->
<svg version="1.1" id="Capa_1" xmlns="http://www.w3.org/2000/svg" xmlns:xlink="http://www.w3.org/1999/xlink" x="0px" y="0px"
	 viewBox="0 0 512 512" style="enable-background:new 0 0 512 512;" xml:space="preserve">
<path style="fill:#014059;" d="M256,0L99.265,256L256,512c141.159,0,256-114.841,256-256S397.159,0,256,0z"/>
<path style="fill:#015E82;" d="M0,256c0,141.159,114.841,256,256,256V0C114.841,0,0,114.841,0,256z"/>
<path style="fill:#FFE17A;" d="M256,120l-83.265,136L256,392c74.991,0,136-61.009,136-136S330.991,120,256,120z"/>
<path style="fill:#FFF0BC;" d="M120,256c0,74.991,61.009,136,136,136V120C181.009,120,120,181.009,120,256z"/>
<g>
	
		<rect x="49.283" y="200.239" transform="matrix(-0.9781 -0.2079 0.2079 -0.9781 82.4088 439.1371)" style="fill:#FF0021;" width="29.999" height="29.999"/>
	
		<rect x="49.277" y="281.738" transform="matrix(-0.9781 0.2079 -0.2079 -0.9781 188.8433 573.6266)" style="fill:#FF0021;" width="29.999" height="29.999"/>
</g>
<g>
	
		<rect x="432.735" y="200.256" transform="matrix(0.9781 -0.2079 0.2079 0.9781 -34.9698 97.7924)" style="fill:#D5011D;" width="29.999" height="29.999"/>
	
		<rect x="432.73" y="281.769" transform="matrix(0.9781 0.2079 -0.2079 0.9781 71.4849 -86.6025)" style="fill:#D5011D;" width="29.999" height="29.999"/>
</g>
<path style="fill:#FFF0BC;" d="M405.199,106.801C365.347,66.948,312.36,45,256,45l-15,15l15,15c48.347,0,93.8,18.827,127.986,53.014
	L405.199,106.801z"/>
<path style="fill:#FFFFFF;" d="M106.801,106.801l21.213,21.213C162.2,93.827,207.653,75,256,75V45
	C199.64,45,146.653,66.948,106.801,106.801z"/>
<path style="fill:#FFF0BC;" d="M256,437l-15,15l15,15c56.36,0,109.347-21.948,149.199-61.801l-21.213-21.213
	C349.8,418.173,304.347,437,256,437z"/>
<path style="fill:#FFFFFF;" d="M128.014,383.986l-21.213,21.213C146.653,445.052,199.64,467,256,467v-30
	C207.653,437,162.2,418.173,128.014,383.986z"/>
<path style="fill:#FFF0BC;" d="M256,150l-64.898,106L256,362c58.449,0,106-47.551,106-106S314.449,150,256,150z"/>
<path style="fill:#FFFFFF;" d="M150,256c0,58.449,47.551,106,106,106V150C197.551,150,150,197.551,150,256z"/>
<g>
	<rect x="211" y="207.1" style="fill:#015E82;" width="60.23" height="30"/>
	<polygon style="fill:#015E82;" points="211,267.097 211,327.097 241,327.097 241,297.097 264.672,297.097 264.672,267.097 	"/>
</g>
<path style="fill:#014059;" d="M316,202.403c0-16.569-13.432-30-30-30s-30,13.431-30,30v124.694h30v-68.435h30V202.403z"/>
<g>
</g>
<g>
</g>
<g>
</g>
<g>
</g>
<g>
</g>
<g>
</g>
<g>
</g>
<g>
</g>
<g>
</g>
<g>
</g>
<g>
</g>
<g>
</g>
<g>
</g>
<g>
</g>
<g>
</g>
</svg>
