<?xml version="1.0" encoding="iso-8859-1"?>
<!-- Generator: Adobe Illustrator 19.0.0, SVG Export Plug-In . SVG Version: 6.00 Build 0)  -->
<svg version="1.1" id="Capa_1" xmlns="http://www.w3.org/2000/svg" xmlns:xlink="http://www.w3.org/1999/xlink" x="0px" y="0px"
	 viewBox="0 0 512 512" style="enable-background:new 0 0 512 512;" xml:space="preserve">
<polygon points="256,0 206,256 256,512 454.999,256 "/>
<polygon style="fill:#012231;" points="57.001,256 256,512 256,0 "/>
<polygon style="fill:#373C40;" points="293.917,97.667 256,48.891 226,127.667 "/>
<polygon style="fill:#4F565B;" points="256,48.891 218.083,97.667 256,127.667 "/>
<polygon style="fill:#373C40;" points="256,463.109 293.917,414.333 226,384.333 "/>
<polygon style="fill:#4F565B;" points="218.083,414.333 256,463.109 256,384.333 "/>
<polygon style="fill:#EFF6F9;" points="417.001,256 392.384,224.333 306.219,186.426 343.151,161 293.917,97.667 256,97.667 
	196,256 256,414.333 293.917,414.333 343.151,351 306.219,325.574 392.384,287.667 "/>
<polygon style="fill:#FFFFFF;" points="218.083,97.667 168.849,161 205.781,186.426 119.616,224.333 94.999,256 119.616,287.667 
	205.781,325.574 168.849,351 218.083,414.333 256,414.333 256,97.667 "/>
<g>
	<polygon style="fill:#373C40;" points="256,224.333 392.384,224.333 343.151,161 256,161 226,192.667 	"/>
	<polygon style="fill:#373C40;" points="256,287.667 226,319.333 256,351 343.151,351 392.384,287.667 	"/>
</g>
<g>
	<polygon style="fill:#4F565B;" points="256,161 168.849,161 119.616,224.333 256,224.333 	"/>
	<polygon style="fill:#4F565B;" points="256,287.667 119.616,287.667 168.849,351 256,351 	"/>
</g>
<path style="fill:#012231;" d="M291.712,256C302.351,245.964,309,231.745,309,216c0-29.656-23.597-53.891-53-54.949
	c-0.665-0.024-1.329-0.051-2-0.051h-51v190h51c0.671,0,1.335-0.027,2-0.051c29.403-1.058,53-25.293,53-54.949
	C309,280.255,302.351,266.036,291.712,256z"/>
<path d="M291.712,256C302.351,245.964,309,231.745,309,216c0-29.656-23.597-53.891-53-54.949L226,256l30,94.949
	c29.403-1.058,53-25.293,53-54.949C309,280.255,302.351,266.036,291.712,256z"/>
<path style="fill:#012231;" d="M254,161h-51v190h51c0.671,0,1.335-0.027,2-0.051V161.051C255.335,161.027,254.671,161,254,161z"/>
<path style="fill:#EFF6F9;" d="M279,296c0-13.111-10.147-23.89-23-24.913L246,296l10,24.913C268.853,319.89,279,309.111,279,296z"/>
<path style="fill:#FFFFFF;" d="M254,271h-21v50h21c0.674,0,1.339-0.035,2-0.087v-49.826C255.339,271.035,254.674,271,254,271z"/>
<path style="fill:#EFF6F9;" d="M279,216c0-13.111-10.147-23.89-23-24.913L246,216l10,24.913C268.853,239.89,279,229.111,279,216z"/>
<path style="fill:#FFFFFF;" d="M254,191h-21v50h21c0.674,0,1.339-0.035,2-0.087v-49.826C255.339,191.035,254.674,191,254,191z"/>
<g>
</g>
<g>
</g>
<g>
</g>
<g>
</g>
<g>
</g>
<g>
</g>
<g>
</g>
<g>
</g>
<g>
</g>
<g>
</g>
<g>
</g>
<g>
</g>
<g>
</g>
<g>
</g>
<g>
</g>
</svg>
