<?xml version="1.0" encoding="iso-8859-1"?>
<!-- Generator: Adobe Illustrator 19.0.0, SVG Export Plug-In . SVG Version: 6.00 Build 0)  -->
<svg version="1.1" id="Capa_1" xmlns="http://www.w3.org/2000/svg" xmlns:xlink="http://www.w3.org/1999/xlink" x="0px" y="0px"
	 viewBox="0 0 512 512" style="enable-background:new 0 0 512 512;" xml:space="preserve">
<path d="M256,0L99.265,256L256,512c141.159,0,256-114.841,256-256S397.159,0,256,0z"/>
<path style="fill:#014059;" d="M0,256c0,141.159,114.841,256,256,256V0C114.841,0,0,114.841,0,256z"/>
<path style="fill:#FFD237;" d="M256,30L117.633,256L256,482c124.617,0,226-101.383,226-226S380.617,30,256,30z"/>
<path style="fill:#FFE17A;" d="M30,256c0,124.617,101.383,226,226,226V30C131.383,30,30,131.383,30,256z"/>
<rect x="210.5" y="375.92" style="fill:#014059;" width="30" height="60"/>
<rect x="270.5" y="375.92" width="30" height="60"/>
<path style="fill:#014059;" d="M139.5,351h-51V161h51c30.327,0,55,24.673,55,55c0,15.745-6.649,29.964-17.288,40
	c10.639,10.036,17.288,24.255,17.288,40C194.5,326.327,169.827,351,139.5,351z M118.5,321h21c13.785,0,25-11.215,25-25
	s-11.215-25-25-25h-21V321z M118.5,241h21c13.785,0,25-11.215,25-25s-11.215-25-25-25h-21V241z"/>
<path d="M372.5,351h-51V161h51c30.327,0,55,24.673,55,55c0,15.745-6.649,29.964-17.288,40c10.639,10.036,17.288,24.255,17.288,40
	C427.5,326.327,402.827,351,372.5,351z M351.5,321h21c13.785,0,25-11.215,25-25s-11.215-25-25-25h-21V321z M351.5,241h21
	c13.785,0,25-11.215,25-25s-11.215-25-25-25h-21V241z"/>
<path d="M323.151,93.66h-31.302l-37.345,125.386c-0.003-0.011-15.003-0.011-15.003-0.011l15,47.413l17.176,0.038L323.151,93.66z"/>
<polygon style="fill:#014059;" points="217.152,93.66 185.849,93.66 237.31,266.408 254.5,266.447 254.5,219.034 "/>
<g>
</g>
<g>
</g>
<g>
</g>
<g>
</g>
<g>
</g>
<g>
</g>
<g>
</g>
<g>
</g>
<g>
</g>
<g>
</g>
<g>
</g>
<g>
</g>
<g>
</g>
<g>
</g>
<g>
</g>
</svg>
