<?xml version="1.0" encoding="iso-8859-1"?>
<!-- Generator: Adobe Illustrator 19.0.0, SVG Export Plug-In . SVG Version: 6.00 Build 0)  -->
<svg version="1.1" id="Capa_1" xmlns="http://www.w3.org/2000/svg" xmlns:xlink="http://www.w3.org/1999/xlink" x="0px" y="0px"
	 viewBox="0 0 512 512" style="enable-background:new 0 0 512 512;" xml:space="preserve">
<g>
	<polygon style="fill:#FF0021;" points="512,302 512,347 482,365.148 482,271 	"/>
	<path style="fill:#FF0021;" d="M338.312,93.074c13.843,6.414,26.812,14.378,38.69,23.705L512,157.456V196l-90,75
		c0-64.445-37.8-123.601-96.301-150.707L338.312,93.074z"/>
</g>
<path style="fill:#D5011D;" d="M497,196h15v106h-60v63.148h-30V271C422,229.645,455.645,196,497,196z"/>
<path style="fill:#FF0021;" d="M346.918,31.551l-19.632,24.858c19.934,6.599,38.85,15.991,56.225,27.917l16.977-24.734
	C383.773,48.118,365.795,38.711,346.918,31.551z"/>
<path style="fill:#D5011D;" d="M444.5,15c37.22,0,67.5,30.28,67.5,67.5v74.956H377V15H444.5z"/>
<g>
	<path style="fill:#FF0021;" d="M173.688,93.074c-13.843,6.414-26.812,14.378-38.69,23.705L0,157.456V196l90,75
		c0-64.445,37.8-123.601,96.301-150.707L173.688,93.074z"/>
	<polygon style="fill:#FF0021;" points="0,302 0,347 30,365.148 30,271 	"/>
</g>
<path style="fill:#D5011D;" d="M15,196H0v106h60v63.148h30V271C90,229.645,56.355,196,15,196z"/>
<path style="fill:#FF0021;" d="M165.082,31.551c-18.877,7.16-36.854,16.567-53.57,28.04l16.977,24.734
	c17.375-11.925,36.292-21.318,56.225-27.917L165.082,31.551z"/>
<path style="fill:#D5011D;" d="M67.5,15C30.28,15,0,45.28,0,82.5v74.956h135V15H67.5z"/>
<path style="fill:#4F565B;" d="M175.286,27.93L165,31.334v160.518h136L256,15C228.358,15,201.202,19.35,175.286,27.93z"/>
<path d="M347,31.334l-10.286-3.405C310.798,19.35,283.642,15,256,15v176.852h91V31.334z"/>
<path style="fill:#FFD237;" d="M497,347c-62.089,0-93.625,7.852-124.124,15.444C342.81,369.93,314.411,377,256,377l-60,60l60,60
	c73.125,0,111.771-9.622,145.867-18.11C429.592,471.987,449.624,467,497,467h15V347H497z"/>
<path style="fill:#FFE17A;" d="M139.124,362.444C108.625,354.852,77.089,347,15,347H0v120h15c47.376,0,67.408,4.987,95.133,11.89
	C144.229,487.378,182.875,497,256,497V377C197.589,377,169.19,369.93,139.124,362.444z"/>
<path style="fill:#FFD237;" d="M256,45l-30,131.612h91V53.277C297.266,47.781,276.795,45,256,45z"/>
<path style="fill:#FFE17A;" d="M195,53.277v123.335h61V45C235.205,45,214.735,47.781,195,53.277z"/>
<path d="M497,347c-62.089,0-93.625,7.852-124.124,15.444C342.81,369.93,314.411,377,256,377l-15,15l15,15
	c62.089,0,93.625-7.852,124.124-15.444c27.372-6.814,53.363-13.285,101.876-14.39v60.012c-40.817,1.008-61.677,6.202-87.381,12.601
	C362.196,457.851,325.447,467,256,467l-15,15l15,15c73.125,0,111.771-9.622,145.867-18.11C429.592,471.987,449.624,467,497,467h15
	V347H497z"/>
<path style="fill:#4F565B;" d="M117.38,449.778c-25.704-6.399-46.563-11.593-87.38-12.601v-60.012
	c48.513,1.105,74.504,7.576,101.876,14.39C162.375,399.148,193.911,407,256,407v-30c-58.411,0-86.81-7.07-116.876-14.556
	C108.625,354.852,77.089,347,15,347H0v120h15c47.376,0,67.408,4.987,95.133,11.89C144.229,487.378,182.875,497,256,497v-30
	C186.553,467,149.804,457.851,117.38,449.778z"/>
<path d="M256,135l-83.265,136L256,407c74.991,0,136-61.009,136-136S330.991,135,256,135z"/>
<path style="fill:#4F565B;" d="M120,271c0,74.991,61.009,136,136,136V135C181.009,135,120,196.009,120,271z"/>
<path style="fill:#EFF6F9;" d="M256,165l-64.898,106L256,377c58.449,0,106-47.551,106-106S314.449,165,256,165z"/>
<path style="fill:#FFFFFF;" d="M150,271c0,58.449,47.551,106,106,106V165C197.551,165,150,212.551,150,271z"/>
<polygon style="fill:#4F565B;" points="332,256 271,256 271,195 241,195 241,256 180,256 180,286 241,286 241,347 271,347 271,286 
	332,286 "/>
<g>
</g>
<g>
</g>
<g>
</g>
<g>
</g>
<g>
</g>
<g>
</g>
<g>
</g>
<g>
</g>
<g>
</g>
<g>
</g>
<g>
</g>
<g>
</g>
<g>
</g>
<g>
</g>
<g>
</g>
</svg>
