<?xml version="1.0" encoding="iso-8859-1"?>
<!-- Generator: Adobe Illustrator 19.0.0, SVG Export Plug-In . SVG Version: 6.00 Build 0)  -->
<svg version="1.1" id="Capa_1" xmlns="http://www.w3.org/2000/svg" xmlns:xlink="http://www.w3.org/1999/xlink" x="0px" y="0px"
	 viewBox="0 0 512 512" style="enable-background:new 0 0 512 512;" xml:space="preserve">
<path d="M458.259,83.181l-1.474-13.354H443.35c-65.47,0-127.015-21.553-177.979-62.329l-9.369-7.496l-60,255.998l60,256l6.078-2.65
	C386.564,454.152,467,328.917,467,190.297C467,167.228,462.247,119.313,458.259,83.181z"/>
<path style="fill:#012231;" d="M256,0l-9.371,7.498C195.664,48.273,134.12,69.826,68.65,69.826H55.215l-1.474,13.355
	C49.753,119.317,45,167.235,45,190.297c0,138.619,80.436,263.855,204.92,319.052L256,512C256.002,511.999,256.002,0.002,256,0z"/>
<path style="fill:#FF9037;" d="M429.859,99.543c-31.732-1.333-62.815-7.372-92.577-18.001c-29.12-10.401-56.412-24.979-81.28-43.402
	l-60,323.846l221.228-60C430.09,266.91,437,229.182,437,190.297C437,174.631,434.539,143.401,429.859,99.543z"/>
<path style="fill:#FFB037;" d="M256.002,38.14c-24.872,18.422-52.164,33.001-81.284,43.401
	c-29.762,10.63-60.845,16.669-92.577,18.002C77.461,143.406,75,174.636,75,190.297c0,38.885,6.91,76.612,19.77,111.689l161.232,60
	V38.14z"/>
<path style="fill:#D1DEE4;" d="M301.002,151.986h-45l-30,75h120v90h30v-90C376.002,185.631,342.357,151.986,301.002,151.986z"/>
<polygon style="fill:#EFF6F9;" points="256.002,151.986 226.002,151.986 226.002,121.986 196.002,121.986 196.002,151.986 
	166.002,151.986 166.002,121.986 136.002,121.986 136.002,316.986 166.002,316.986 166.002,226.986 256.002,226.986 "/>
<path style="fill:#4F565B;" d="M346.002,227c0-5.263-0.917-10.315-2.585-15.014h-87.415l-20,15l20,15h90V227z"/>
<rect x="166" y="211.99" style="fill:#697176;" width="90" height="30"/>
<rect x="286" y="271.99" style="fill:#D1DEE4;" width="30" height="45"/>
<rect x="226" y="271.99" style="fill:#EFF6F9;" width="30" height="45"/>
<path style="fill:#AA011A;" d="M256.002,479.149c75.764-35.572,132.916-99.942,161.228-177.163H256.002l-60,88.581L256.002,479.149z
	"/>
<path style="fill:#D5011D;" d="M94.77,301.986C123.082,379.207,180.235,443.578,256,479.15c0.002-0.001,0.002-177.164,0.002-177.164
	H94.77z"/>
<g>
</g>
<g>
</g>
<g>
</g>
<g>
</g>
<g>
</g>
<g>
</g>
<g>
</g>
<g>
</g>
<g>
</g>
<g>
</g>
<g>
</g>
<g>
</g>
<g>
</g>
<g>
</g>
<g>
</g>
</svg>
