<?xml version="1.0" encoding="iso-8859-1"?>
<!-- Generator: Adobe Illustrator 19.0.0, SVG Export Plug-In . SVG Version: 6.00 Build 0)  -->
<svg version="1.1" id="Capa_1" xmlns="http://www.w3.org/2000/svg" xmlns:xlink="http://www.w3.org/1999/xlink" x="0px" y="0px"
	 viewBox="0 0 512 512" style="enable-background:new 0 0 512 512;" xml:space="preserve">
<path style="fill:#FFB037;" d="M215.88,30c-17.825,0-33.262,10.417-40.543,25.484c-4.697-1.64-9.717-2.519-14.894-2.519
	c-24.813,0-45,20.187-45,45c0,5.952,1.152,11.749,3.422,17.222l16.877,40.744l27.716-11.481l-16.88-40.749
	c-0.754-1.817-1.136-3.747-1.136-5.735c0-8.271,6.729-15,15-15c6.086,0,11.528,3.636,13.862,9.263l20.621,49.777L256,142.003V30
	H215.88z"/>
<path style="fill:#FF9037;" d="M351.561,52.965c-5.177,0-10.197,0.878-14.894,2.519C329.385,40.417,313.948,30,296.124,30H256
	l-30,112.003l91.081-0.002l20.62-49.775c2.335-5.626,7.775-9.261,13.861-9.261c8.271,0,15,6.729,15,15
	c0,1.988-0.382,3.918-1.138,5.74l-16.876,40.738l27.716,11.481l16.875-40.734c2.271-5.479,3.423-11.274,3.423-17.226
	C396.561,73.151,376.374,52.965,351.561,52.965z"/>
<path style="fill:#FF0021;" d="M227.396,142.001L202.018,80.74c-0.755-1.822-1.138-3.752-1.138-5.74c0-8.271,6.729-15,15-15h40.124
	v82.001H227.396z"/>
<path style="fill:#D5011D;" d="M284.608,142.001l25.378-61.261c0.755-1.822,1.138-3.752,1.138-5.74c0-8.271-6.729-15-15-15H256
	v82.001H284.608z"/>
<g>
	<rect x="241" style="fill:#FF9037;" width="30" height="124.73"/>
	<path style="fill:#FF9037;" d="M429.583,148.437l-1-9.063l-8.505-3.284c-44.1-17.034-102.369-26.415-164.073-26.415
		C256,109.675,196,310.837,196,310.837L256,512l6.08-2.695C368.34,462.188,437,355.298,437,236.988
		C437,218.233,433.435,183.345,429.583,148.437z"/>
</g>
<path style="fill:#FFB037;" d="M91.921,136.092l-8.505,3.285l-1,9.062C78.564,183.35,75,218.239,75,236.988
	c0,118.31,68.66,225.2,174.92,272.316L256,512V109.675C194.294,109.675,136.023,119.057,91.921,136.092z"/>
<path style="fill:#EFF6F9;" d="M400.775,160.965c-39.659-13.762-90.624-21.29-144.771-21.29C256,139.675,196,309.382,196,309.382
	l60,169.707c91.95-43.641,151-137.927,151-242.101C407,221.273,404,190.684,400.775,160.965z"/>
<path style="fill:#FFFFFF;" d="M111.225,160.967C108,190.688,105,221.279,105,236.988c0,104.174,59.05,198.46,151,242.101V139.675
	C201.851,139.675,150.885,147.204,111.225,160.967z"/>
<path style="fill:#FF9037;" d="M374.069,194.33l-1.029-10.694l-10.457-2.468c-31.856-7.519-68.71-11.492-106.579-11.492
	C256,169.676,196,307.629,196,307.629l60,137.954l7.781-4.721c34.323-20.824,62.94-50.617,82.759-86.16
	C366.467,318.963,377,278.259,377,236.988C377,228.788,376.042,214.835,374.069,194.33z"/>
<path style="fill:#FFB037;" d="M149.416,181.17l-10.457,2.468l-1.029,10.694c-1.972,20.505-2.931,34.457-2.931,42.656
	c0,41.271,10.533,81.975,30.46,117.714c19.818,35.543,48.436,65.336,82.759,86.16l7.781,4.721V169.676
	C218.128,169.676,181.272,173.651,149.416,181.17z"/>
<path style="fill:#D5011D;" d="M305.753,239.734l10,107.933c16.168-26.366,26.595-56.425,30-87.933L305.753,239.734z"/>
<path style="fill:#EFF6F9;" d="M265.918,239.734l10,155.223c15.61-13.653,29.012-29.64,39.835-47.29V239.734H265.918z"/>
<path style="fill:#D5011D;" d="M246,239.734l10,170.565c6.986-4.7,13.624-9.838,19.918-15.342V239.734H246z"/>
<path style="fill:#FF0021;" d="M226.083,239.734l10,155.223c6.293,5.504,12.932,10.643,19.917,15.342V239.734H226.083z"/>
<path style="fill:#FFFFFF;" d="M186.247,239.734l10,107.933c10.823,17.65,24.225,33.637,39.835,47.29V239.734H186.247z"/>
<path style="fill:#FF0021;" d="M166.247,259.734c3.405,31.508,13.832,61.567,30,87.933V239.734L166.247,259.734z"/>
<path style="fill:#D5011D;" d="M347,236.988c0-5.703-0.601-15.406-1.79-28.919c-27.148-5.504-57.742-8.394-89.206-8.394
	c-0.004,0-20.004,30-20.004,30l20,30h89.753C346.562,252.183,347,244.614,347,236.988z"/>
<path style="fill:#FF0021;" d="M166.791,208.071c-1.454,16.571-1.791,24.826-1.791,28.917c0,7.625,0.438,15.194,1.247,22.687H256
	v-60C224.533,199.676,193.939,202.567,166.791,208.071z"/>
<g>
</g>
<g>
</g>
<g>
</g>
<g>
</g>
<g>
</g>
<g>
</g>
<g>
</g>
<g>
</g>
<g>
</g>
<g>
</g>
<g>
</g>
<g>
</g>
<g>
</g>
<g>
</g>
<g>
</g>
</svg>
