<?xml version="1.0" encoding="iso-8859-1"?>
<!-- Generator: Adobe Illustrator 19.0.0, SVG Export Plug-In . SVG Version: 6.00 Build 0)  -->
<svg version="1.1" id="Capa_1" xmlns="http://www.w3.org/2000/svg" xmlns:xlink="http://www.w3.org/1999/xlink" x="0px" y="0px"
	 viewBox="0 0 512.001 512.001" style="enable-background:new 0 0 512.001 512.001;" xml:space="preserve">
<path style="fill:#D5011D;" d="M383.333,44.35c2.95,39.41,8.67,124.78,8.67,145.96c0,136.75-55.98,254.21-136,305.34l-20-240.325
	l20-240.325C299.893,15,343.783,24.78,383.333,44.35z"/>
<path style="fill:#FF0021;" d="M256.003,15v480.65c-80.02-51.13-136-168.59-136-305.34c0-21.18,5.71-106.55,8.67-145.96
	C168.223,24.78,212.113,15,256.003,15z"/>
<path style="fill:#015E82;" d="M443.353,84.99c4.09,37.07,8.65,83.32,8.65,105.32c0,136.75-80.68,254.21-196,305.34
	c80.02-51.13,136-168.59,136-305.34c0-21.18-5.72-106.55-8.67-145.96C404.863,54.99,425.103,68.54,443.353,84.99z"/>
<path style="fill:#007CAA;" d="M120.003,190.31c0,136.75,55.98,254.21,136,305.34c-115.32-51.13-196-168.59-196-305.34
	c0-22,4.56-68.24,8.65-105.32c18.25-16.45,38.49-30,60.02-40.64C125.713,83.76,120.003,169.13,120.003,190.31z"/>
<path style="fill:#EFF6F9;" d="M280.029,497.059c77.681-59.942,126.972-177.692,126.972-306.748
	c0-21.907-5.675-106.609-8.714-147.088l-29.916,2.246c2.915,38.836,8.63,123.988,8.63,144.843
	c0,123.259-47.204,236.198-120.998,288.852l-15,17.896h39.026V497.059z"/>
<path style="fill:#FFFFFF;" d="M256.003,479.163c-73.877-52.612-121.002-165.512-121.002-288.852
	c0-19.901,5.533-103.586,8.63-144.842l-29.916-2.246c-2.368,31.534-6.563,93.48-8.115,127.787l6.962,105.951
	c16.602,93.491,59.588,173.937,119.411,220.099h23.128C255.101,497.059,258.615,481.023,256.003,479.163z"/>
<path style="fill:#FFB037;" d="M110.07,375.062l-8.459-28.783c33.67-9.895,63.967-30.817,85.308-58.913l23.89,18.146
	C185.62,338.673,149.844,363.373,110.07,375.062z"/>
<path style="fill:#FF9037;" d="M458.26,83.342l-0.626-5.676l-4.242-3.823C400.546,26.225,330.446,0,256.003,0l-15,15l15,15
	c65.033,0,126.256,22.117,173.07,62.4c5.19,47.7,7.928,81.487,7.928,97.911c0,124.49-70.82,237.121-180.998,288.852l-15,16.489
	l15,16.349l6.078-2.637c124.484-55.198,204.92-180.433,204.92-319.053C467.001,171.894,464.06,135.904,458.26,83.342z"/>
<g>
	<path style="fill:#FFB037;" d="M256.001,479.164c-110.18-51.73-181-164.363-181-288.853c0-16.422,2.738-50.208,7.928-97.908
		C129.744,52.119,190.968,30,256.003,30V0C181.558,0,111.456,26.226,58.61,73.847l-4.242,3.822l-0.626,5.676
		c-5.8,52.562-8.741,88.55-8.741,106.966c0,138.619,80.436,263.854,204.92,319.052l6.08,2.637
		C256.003,511.999,256.003,479.163,256.001,479.164z"/>
	<path style="fill:#FFB037;" d="M105.394,171l-0.332,14.66c-0.04,1.768-0.061,3.326-0.061,4.651c0,24.868,1.826,49.732,5.428,73.9
		L112.335,277h78.299l4.486-76h60.883v-30H105.394z"/>
</g>
<rect x="256.001" y="171" style="fill:#FF9037;" width="195.95" height="70"/>
<path style="fill:#FF6E37;" d="M256.003,171l-45,85l45,85c46.869,0,85-38.131,85-85S302.872,171,256.003,171z"/>
<path style="fill:#FF9037;" d="M171.003,256c0,46.869,38.131,85,85,85V171C209.134,171,171.003,209.131,171.003,256z"/>
<path style="fill:#D5011D;" d="M256.003,226l-15.882,30l15.882,30c16.542,0,30-13.458,30-30S272.545,226,256.003,226z"/>
<path style="fill:#FF0021;" d="M226.003,256c0,16.542,13.458,30,30,30v-60C239.461,226,226.003,239.458,226.003,256z"/>
<g>
</g>
<g>
</g>
<g>
</g>
<g>
</g>
<g>
</g>
<g>
</g>
<g>
</g>
<g>
</g>
<g>
</g>
<g>
</g>
<g>
</g>
<g>
</g>
<g>
</g>
<g>
</g>
<g>
</g>
</svg>
